Coordinates
version=1
nRows=14
nColumns=46
inDegrees=yes

Units are S.I. units (second, meters, Newtons, ...)
Angles are in degrees.

endheader
time	pelvis_tilt	pelvis_list	pelvis_rotation	pelvis_tx	pelvis_ty	pelvis_tz	bb_angle	bb_tx	bb_ty	bb_tz	hip_flexion_r	hip_adduction_r	hip_rotation_r	knee_angle_r	knee_angle_r_beta	ankle_angle_r	subtalar_angle_r	mtp_angle_r	crank_angle_r	hip_flexion_l	hip_adduction_l	hip_rotation_l	knee_angle_l	knee_angle_l_beta	ankle_angle_l	subtalar_angle_l	mtp_angle_l	crank_angle_l	lumbar_extension	lumbar_bending	lumbar_rotation	arm_flex_r	arm_add_r	arm_rot_r	elbow_flex_r	pro_sup_r	wrist_flex_r	wrist_dev_r	arm_flex_l	arm_add_l	arm_rot_l	elbow_flex_l	pro_sup_l	wrist_flex_l	wrist_dev_l
      5.00500000	     -7.64805881	      0.68467252	      0.74888423	      0.12794786	      1.12488000	     -0.26966287	      0.00000000	      0.50000000	      0.00000000	      0.25000000	     61.22969557	    -12.66598060	     -2.30986605	    101.44099777	      1.77047941	      1.20047427	     -5.34648451	      0.00000000	      0.00000000	     55.89140051	     -3.48524868	      2.45104006	     57.06906922	      0.99604316	     10.26963606	     -1.96676080	      0.00000000	      0.00000000	    -67.36198333	      2.06832675	     -3.17342359	     85.28196023	    -18.83850179	     37.62426267	     64.05713142	     44.18347135	      0.00000000	      0.00000000	     81.91529471	    -24.39255721	     28.70894095	     63.36681947	     49.77371895	      0.00000000	      0.00000000
      5.01000000	     -7.81900195	      0.17837976	      0.72012261	      0.12900333	      1.12517479	     -0.27032543	      0.00000000	      0.50000000	      0.00000000	      0.25000000	     62.38760738	    -12.37958346	     -2.46371166	    103.00638814	      1.79780062	      1.83211707	     -5.59380010	      0.00000000	      0.00000000	     54.61649680	     -3.96525079	      2.60163077	     55.08815518	      0.96146969	      9.26237711	     -1.24442372	      0.00000000	      0.00000000	    -67.11273940	      2.61878349	     -2.61386097	     85.15826508	    -18.59555455	     37.71416020	     64.03848911	     44.19219066	      0.00000000	      0.00000000	     81.61921097	    -24.63580826	     28.74627783	     63.27375999	     49.75611655	      0.00000000	      0.00000000
      5.01500000	     -7.60441716	      0.33803846	      0.56084271	      0.13029887	      1.12686191	     -0.27074357	      0.00000000	      0.50000000	      0.00000000	      0.25000000	     63.27308480	    -12.45223745	     -1.99953847	    104.50478191	      1.82395253	      2.68638067	     -5.54147090	      0.00000000	      0.00000000	     52.54548133	     -4.16484604	      1.93004768	     52.65366779	      0.91897987	      8.08755723	     -0.30323589	      0.00000000	      0.00000000	    -67.30767997	      2.61648328	     -3.16412198	     85.61272654	    -17.93701481	     38.64396253	     63.10870833	     44.14803205	      0.00000000	      0.00000000	     81.70145244	    -25.55860054	     29.45688504	     62.90385467	     49.78892380	      0.00000000	      0.00000000
      5.02000000	     -7.86776829	     -0.22448173	      0.46760716	      0.13159625	      1.12753430	     -0.27169983	      0.00000000	      0.50000000	      0.00000000	      0.25000000	     64.49645755	    -12.10603897	     -2.22087034	    105.86830625	      1.84775052	      3.33042152	     -5.72404875	      0.00000000	      0.00000000	     51.25073584	     -4.75573616	      1.93133324	     50.60995361	      0.88331032	      7.10085029	      0.45210826	      0.00000000	      0.00000000	    -67.02097653	      3.15771219	     -2.61145978	     85.60529685	    -17.69882571	     38.74772037	     63.04364022	     44.15001069	      0.00000000	      0.00000000	     81.38616464	    -25.83056184	     29.54561032	     62.80555378	     49.78338559	      0.00000000	      0.00000000
      5.02500000	     -7.76626376	     -0.27579059	      0.08070603	      0.13300471	      1.12927908	     -0.27194613	      0.00000000	      0.50000000	      0.00000000	      0.25000000	     65.54777159	    -11.77789724	     -1.83100870	    107.16692934	      1.87041577	      3.84259859	     -5.75329192	      0.00000000	      0.00000000	     49.28130837	     -5.28752893	      1.10361867	     48.30454508	      0.84307336	      6.08906083	      1.46019480	      0.00000000	      0.00000000	    -67.11241186	      3.11100351	     -2.66821490	     85.87160013	    -17.16152894	     39.42224085	     62.34759160	     44.11282699	      0.00000000	      0.00000000	     81.26641564	    -26.40307374	     29.95773211	     62.55131019	     49.80273177	      0.00000000	      0.00000000
      5.03000000	     -8.04390771	     -0.85604909	     -0.06013187	      0.13409123	      1.13025816	     -0.27280106	      0.00000000	      0.50000000	      0.00000000	      0.25000000	     66.86586905	    -11.34820642	     -2.05091629	    108.33675754	      1.89083312	      4.30178500	     -5.91166050	      0.00000000	      0.00000000	     47.95994476	     -5.93149415	      0.98291068	     46.26276340	      0.80743754	      5.07427845	      2.18598172	      0.00000000	      0.00000000	    -66.86123937	      3.59486756	     -2.12640100	     85.99526274	    -16.92471011	     39.55917253	     62.24928605	     44.11149318	      0.00000000	      0.00000000	     81.00513852	    -26.65416702	     30.06784538	     62.41839768	     49.79733900	      0.00000000	      0.00000000
      5.03500000	     -8.07290240	     -1.03091322	     -0.71205463	      0.13549156	      1.13199177	     -0.27318995	      0.00000000	      0.50000000	      0.00000000	      0.25000000	     68.09356512	    -10.67014205	     -1.65983757	    109.41542436	      1.90965941	      4.62422212	     -6.05653440	      0.00000000	      0.00000000	     46.12283909	     -6.69516150	     -0.08670412	     44.10248609	      0.76973359	      4.06520333	      3.04341110	      0.00000000	      0.00000000	    -66.82844669	      3.44634351	     -1.80342148	     86.20738107	    -16.62031507	     40.19417097	     61.58944433	     44.07317870	      0.00000000	      0.00000000	     80.83043297	    -26.97238552	     30.37249448	     62.10731401	     49.79392313	      0.00000000	      0.00000000
      5.04000000	     -8.21620485	     -1.56011509	     -0.77099638	      0.13616915	      1.13306131	     -0.27392750	      0.00000000	      0.50000000	      0.00000000	      0.25000000	     69.37172342	    -10.32971500	     -1.88850732	    110.44647321	      1.92765460	      4.92671978	     -6.20170337	      0.00000000	      0.00000000	     44.72013772	     -7.26452036	     -0.31930290	     42.19392798	      0.73642297	      3.04126739	      3.80904802	      0.00000000	      0.00000000	    -66.68520521	      3.94469043	     -1.30147676	     86.35919690	    -16.43116731	     40.32474695	     61.49261948	     44.07056028	      0.00000000	      0.00000000	     80.64737434	    -27.15321940	     30.47471907	     61.91250889	     49.77337741	      0.00000000	      0.00000000
      5.04500000	     -7.84570735	     -1.56811786	     -1.05636587	      0.13702915	      1.13515462	     -0.27394343	      0.00000000	      0.50000000	      0.00000000	      0.25000000	     70.26873067	     -9.96252336	     -1.51995786	    111.43602942	      1.94492562	      4.88116014	     -6.55216731	      0.00000000	      0.00000000	     42.56895479	     -7.67914171	     -1.44035077	     40.17374878	      0.70116419	      2.06576341	      4.83363063	      0.00000000	      0.00000000	    -67.07599977	      3.87776224	     -1.18348169	     86.69785140	    -16.26776669	     41.00299913	     60.85365796	     44.03654257	      0.00000000	      0.00000000	     80.89743789	    -27.30675007	     30.94467178	     61.32905160	     49.73965309	      0.00000000	      0.00000000
      5.05000000	     -8.12007016	     -2.11039557	     -1.25320000	      0.13801352	      1.13647285	     -0.27509309	      0.00000000	      0.50000000	      0.00000000	      0.25000000	     71.68657933	     -9.53517766	     -1.71562116	    112.16152585	      1.95758792	      4.93123507	     -6.56582031	      0.00000000	      0.00000000	     41.33056328	     -8.31151049	     -1.87914533	     38.47187020	      0.67146080	      1.11694334	      5.46888508	      0.00000000	      0.00000000	    -66.88897628	      4.36311975	     -0.55872436	     86.83327590	    -16.14174424	     41.08255166	     60.80920764	     44.03611386	      0.00000000	      0.00000000	     80.66152339	    -27.48442149	     31.04277991	     61.12205014	     49.71809472	      0.00000000	      0.00000000
      5.05500000	     -7.86097980	     -2.18984522	     -1.98793787	      0.13900090	      1.13884192	     -0.27472505	      0.00000000	      0.50000000	      0.00000000	      0.25000000	     72.72648516	     -8.64637861	     -1.34100046	    112.84311366	      1.96948387	      4.51835383	     -7.09067868	      0.00000000	      0.00000000	     39.29908014	     -9.09266818	     -3.57984966	     36.69340340	      0.64042070	      0.10819278	      6.66769506	      0.00000000	      0.00000000	    -67.22939388	      3.89972233	     -0.16816535	     87.13134297	    -16.18134147	     41.80181330	     60.32032926	     44.02838783	      0.00000000	      0.00000000	     80.75190737	    -27.47605116	     31.48212330	     60.55804385	     49.68983199	      0.00000000	      0.00000000
      5.06000000	     -7.97700118	     -2.67081917	     -2.07443715	      0.13953311	      1.14025654	     -0.27561157	      0.00000000	      0.50000000	      0.00000000	      0.25000000	     74.03737182	     -8.29086178	     -1.53907534	    113.42710177	      1.97967639	      4.27070107	     -7.07748156	      0.00000000	      0.00000000	     38.08210615	     -9.63806521	     -4.08412285	     35.30293276	      0.61615241	     -0.90795891	      7.39042656	      0.00000000	      0.00000000	    -67.22172946	      4.38076798	      0.38697735	     87.32498729	    -16.09690916	     41.91431956	     60.31290424	     44.03618639	      0.00000000	      0.00000000	     80.60484541	    -27.60400206	     31.60665883	     60.33165946	     49.67056342	      0.00000000	      0.00000000
      5.06500000	     -7.91038379	     -2.97881147	     -2.31234622	      0.14019167	      1.14205215	     -0.27624994	      0.00000000	      0.50000000	      0.00000000	      0.25000000	     75.20184904	     -7.84226315	     -1.53338260	    113.89953173	      1.98792185	      3.73489532	     -7.24152652	      0.00000000	      0.00000000	     36.64403483	    -10.14504794	     -4.94378991	     33.99274867	      0.59328539	     -1.93249585	      8.18764447	      0.00000000	      0.00000000	    -67.38367261	      4.56393084	      0.82483997	     87.50566328	    -16.09712261	     42.12961602	     60.24667188	     44.04366088	      0.00000000	      0.00000000	     80.49701344	    -27.66911126	     31.79093024	     60.06218172	     49.65257477	      0.00000000	      0.00000000
      5.07000000	     -7.53387437	     -3.01958899	     -2.93041383	      0.14092984	      1.14439002	     -0.27622591	      0.00000000	      0.50000000	      0.00000000	      0.25000000	     76.13961488	     -7.10282408	     -1.23121857	    114.26374543	      1.99427857	      2.88480796	     -7.87093212	      0.00000000	      0.00000000	     34.79640065	    -10.70799637	     -6.62692019	     32.84684477	      0.57328559	     -2.62606560	      9.21369182	      0.00000000	      0.00000000	    -67.86819999	      4.16175637	      1.53541064	     87.84327551	    -16.86930488	     43.26564074	     60.29084051	     44.12556064	      0.00000000	      0.00000000	     81.25084652	    -27.28151417	     33.27143635	     58.71748667	     49.67864745	      0.00000000	      0.00000000
